<svg xmlns="http://www.w3.org/2000/svg" viewBox="0 0 657.77 831.63"><defs><style>.cls-1{fill:none;}.cls-2{fill:#ffc425;}.cls-3{fill:#231f20;}.cls-4{fill:#fff;}</style></defs><title>USARMY_2D_2C_LE_NS_NG</title><g id="Minimum_Clearance" data-name="Minimum Clearance"><polygon class="cls-1" points="1021.07 1099.19 -397.67 1099.19 -397.67 -200.49 1021.07 -200.49 1021.07 1099.19 1021.07 1099.19"/></g><g id="USARMY_2D_2C_A4_NS_NG"><path class="cls-2" d="M626.51,621.63c0-9.26,7.36-15.31,15.61-15.31s15.65,6,15.65,15.31-7.36,15.24-15.65,15.24S626.51,630.9,626.51,621.63Zm15.61-12.06c-6.53,0-11.61,5-11.61,12.06s5.08,12,11.61,12,11.65-5,11.65-12S648.58,609.57,642.12,609.57Zm-2.7,20.54H636V613.05h6.51c4.23,0,6.61,1.37,6.61,5a4.26,4.26,0,0,1-4.16,4.62l4.16,7.4h-3.75l-3.87-7.3h-2.1Zm0-9.93h2.92c2.43,0,3.34-.72,3.34-2.38s-1.08-2.16-3.48-2.16h-2.78Z"/><path class="cls-3" d="M51.56,609.83A51.62,51.62,0,0,0,0,661.39V780.07a51.62,51.62,0,0,0,51.56,51.56h522a51.62,51.62,0,0,0,51.56-51.56V661.39a51.62,51.62,0,0,0-51.56-51.56Z"/><path class="cls-2" d="M573.57,626.29h-522a35.13,35.13,0,0,0-35.1,35.1V780.07a35.13,35.13,0,0,0,35.1,35.1h522a35.14,35.14,0,0,0,35.11-35.1V661.39A35.14,35.14,0,0,0,573.57,626.29Zm18.64,153.78a18.7,18.7,0,0,1-18.64,18.65h-522a18.7,18.7,0,0,1-18.64-18.65V661.39a18.7,18.7,0,0,1,18.64-18.65h522a18.7,18.7,0,0,1,18.64,18.65Z"/><path class="cls-3" d="M51.56,0A51.62,51.62,0,0,0,0,51.56V542.48A51.62,51.62,0,0,0,51.56,594h522a51.62,51.62,0,0,0,51.56-51.56V51.56A51.62,51.62,0,0,0,573.57,0Z"/><path class="cls-2" d="M573.57,16.46h-522a35.14,35.14,0,0,0-35.1,35.1V542.48a35.14,35.14,0,0,0,35.1,35.11h522a35.15,35.15,0,0,0,35.11-35.11V51.56A35.15,35.15,0,0,0,573.57,16.46Zm18.64,526a18.69,18.69,0,0,1-18.64,18.65h-522a18.69,18.69,0,0,1-18.64-18.65V51.56A18.7,18.7,0,0,1,51.56,32.92h522a18.7,18.7,0,0,1,18.64,18.64Z"/><path class="cls-4" d="M128.39,757.1,113.1,772H86.66L70.94,757.1V669.5H94.53v83.17h10.28V669.5h23.58Z"/><path class="cls-4" d="M160,772H136.39V752.25H160Z"/><path class="cls-4" d="M210.28,669.5l16.58,14.87v18.15H203.28V688.79h-9.72v20.87l17.16,1.43,16.14,14.85V757.1L211.43,772H185.28L170,757.1v-18h23.57v13.58h9.72V731.23L186.42,730,170,715.09V684.37l15.43-14.87Z"/><path class="cls-4" d="M258.59,772H235V752.25h23.58Z"/><path class="cls-4" d="M305.61,733.81H295.32l3.58-42.58h2.28Zm11.57-64.31H283L268.6,772h23l2-18.86h13.72l2,18.86h23.15Z"/><path class="cls-4" d="M375.37,688.79v23H365.5v-23Zm22.85-4.42L382.36,669.5H341.92V772H365.5V731.09h9.87V772h22.85V731.09l-11.86-10,11.86-9.86Z"/><path class="cls-4" d="M483.83,772H462.26v-65h-1l-9.86,65h-8.72l-9.86-65h-1v65H410.24V669.5H438l8.28,49.59h2.15l7.71-49.59h27.72Z"/><path class="cls-4" d="M537.29,729.09V772H513.71V729.09L493.42,669.5H517l8.43,37h.28l8.43-37h23.58Z"/><polygon class="cls-2" points="458.2 520.86 312.57 414.97 166.91 520.86 222.6 349.6 76.84 243.85 256.97 243.85 312.57 72.51 368.17 243.85 548.29 243.85 402.54 349.62 458.2 520.86 458.2 520.86"/><polygon class="cls-3" points="425.69 476.1 312.56 393.85 199.43 476.1 242.69 343.07 129.48 260.93 269.38 260.93 312.56 127.86 355.75 260.93 495.65 260.93 382.45 343.08 425.69 476.1 425.69 476.1"/><polygon class="cls-4" points="312.56 181.18 343.79 277.39 444.95 277.39 363.1 336.79 394.37 432.97 312.56 373.5 230.75 432.97 262.04 336.79 180.19 277.39 281.34 277.39 312.56 181.18"/></g></svg>